<svg width="32" height="32" viewBox="0 0 32 32" fill="none" xmlns="http://www.w3.org/2000/svg">
<path d="M29.3333 7.73337C28.3311 8.16816 27.2712 8.45559 26.1867 8.5867C27.3309 7.90313 28.1884 6.82775 28.6 5.56004C27.5247 6.20012 26.3477 6.6511 25.12 6.89337C24.2994 6.00346 23.2066 5.4111 22.0131 5.20917C20.8195 5.00724 19.5927 5.20718 18.5251 5.77762C17.4574 6.34806 16.6092 7.25674 16.1137 8.36115C15.6181 9.46556 15.5031 10.7032 15.7867 11.88C13.6126 11.7701 11.4859 11.204 9.54488 10.2185C7.60383 9.23306 5.8918 7.85029 4.52001 6.16004C4.03886 7.00026 3.78603 7.9518 3.78667 8.92004C3.78497 9.81921 4.00563 10.7049 4.42901 11.4981C4.8524 12.2914 5.46536 12.9676 6.21334 13.4667C5.34397 13.443 4.49319 13.2098 3.73334 12.7867V12.8534C3.73985 14.1132 4.18133 15.3322 4.98309 16.304C5.78485 17.2758 6.89768 17.9409 8.13334 18.1867C7.65768 18.3315 7.16384 18.4078 6.66667 18.4134C6.32253 18.4093 5.97923 18.3781 5.64 18.32C5.99188 19.4038 6.67284 20.3509 7.5881 21.0296C8.50337 21.7083 9.60744 22.0848 10.7467 22.1067C8.82294 23.6204 6.44785 24.4465 4.00001 24.4534C3.55432 24.4548 3.10899 24.4281 2.66667 24.3734C5.16591 25.987 8.07842 26.8437 11.0533 26.84C13.1063 26.8614 15.1429 26.4734 17.0442 25.6988C18.9455 24.9242 20.6734 23.7785 22.1269 22.3287C23.5805 20.8788 24.7306 19.1539 25.5101 17.2546C26.2895 15.3553 26.6827 13.3197 26.6667 11.2667C26.6667 11.04 26.6667 10.8 26.6667 10.56C27.7129 9.77978 28.6153 8.82327 29.3333 7.73337V7.73337Z" fill="white"/>
</svg>
