<svg width="32" height="32" viewBox="0 0 32 32" fill="none" xmlns="http://www.w3.org/2000/svg">
<path d="M30.3451 13.2689C30.411 11.3604 29.9937 9.46627 29.1318 7.76224C28.547 7.06304 27.7354 6.59119 26.8384 6.42891C23.1284 6.09228 19.4031 5.9543 15.6784 6.01558C11.9673 5.95152 8.25537 6.08504 4.55842 6.41558C3.82751 6.54853 3.15111 6.89137 2.61175 7.40224C1.41175 8.50891 1.27842 10.4022 1.14509 12.0022C0.951637 14.879 0.951637 17.7655 1.14509 20.6422C1.18366 21.5428 1.31775 22.4367 1.54509 23.3089C1.70585 23.9823 2.03112 24.6054 2.49175 25.1222C3.03478 25.6602 3.72693 26.0225 4.47842 26.1622C7.35298 26.5171 10.2494 26.6641 13.1451 26.6022C17.8118 26.6689 21.9051 26.6022 26.7451 26.2289C27.515 26.0978 28.2267 25.735 28.7851 25.1889C29.1584 24.8155 29.4372 24.3584 29.5984 23.8556C30.0753 22.3924 30.3095 20.8611 30.2918 19.3222C30.3451 18.5756 30.3451 14.0689 30.3451 13.2689ZM12.6651 20.1222V11.8689L20.5584 16.0156C18.3451 17.2422 15.4251 18.6289 12.6651 20.1222Z" fill="white"/>
</svg>
